<svg xmlns="http://www.w3.org/2000/svg" xmlns:xlink="http://www.w3.org/1999/xlink" width="193" height="193" viewBox="0 0 193 193">
    <defs>
        <path id="prefix__a" d="M0 0.026L4.3 0.026 4.3 4.326 0 4.326z"/>
        <path id="prefix__c" d="M0.673 0.7L4.974 0.7 4.974 5 0.673 5z"/>
    </defs>
    <g fill="none" fill-rule="evenodd">
        <path fill="#888" d="M99.195 3.67c-.84.84-2.2.84-3.04 0-.84-.839-.84-2.2 0-3.04.84-.84 2.2-.84 3.04 0 .84.84.84 2.201 0 3.04M117.73 22.205c-.84.84-2.2.84-3.04 0-.84-.84-.84-2.2 0-3.04.84-.84 2.2-.84 3.04 0 .84.84.84 2.2 0 3.04M136.265 40.74c-.84.84-2.2.84-3.04 0-.84-.84-.84-2.2 0-3.04.84-.84 2.2-.84 3.04 0 .84.84.84 2.2 0 3.04M154.8 59.275c-.84.84-2.202.84-3.04 0-.84-.84-.84-2.201 0-3.04.838-.84 2.2-.84 3.04 0 .84.839.84 2.2 0 3.04M173.335 77.81c-.84.839-2.201.839-3.041 0-.84-.84-.84-2.201 0-3.041.84-.84 2.2-.84 3.04 0 .84.84.84 2.2 0 3.04M191.869 96.344c-.84.84-2.2.84-3.04 0-.84-.84-.84-2.2 0-3.04.84-.84 2.2-.84 3.04 0 .84.84.84 2.2 0 3.04M83.274 19.59c-.839.84-2.2.84-3.04 0-.84-.838-.84-2.2 0-3.04.84-.84 2.201-.84 3.04 0 .84.84.84 2.202 0 3.04M101.81 38.126c-.84.84-2.202.84-3.04 0-.84-.84-.84-2.2 0-3.04.838-.84 2.2-.84 3.04 0 .84.84.84 2.2 0 3.04M120.344 56.661c-.84.84-2.2.84-3.04 0-.84-.84-.84-2.2 0-3.04.84-.84 2.2-.84 3.04 0 .84.84.84 2.2 0 3.04M138.879 75.195c-.84.84-2.2.84-3.04 0-.84-.84-.84-2.2 0-3.04.84-.84 2.2-.84 3.04 0 .84.84.84 2.2 0 3.04M157.414 93.73c-.84.84-2.201.84-3.041 0-.84-.84-.84-2.2 0-3.04.84-.84 2.2-.84 3.04 0 .84.84.84 2.2 0 3.04M175.948 112.265c-.84.84-2.2.84-3.04 0-.84-.84-.84-2.2 0-3.04.84-.84 2.2-.84 3.04 0 .84.84.84 2.2 0 3.04M67.353 35.512c-.839.84-2.2.84-3.04 0-.84-.84-.84-2.2 0-3.04.84-.84 2.201-.84 3.04 0 .84.84.84 2.2 0 3.04M85.888 54.047c-.84.84-2.2.84-3.04 0-.84-.84-.84-2.201 0-3.041.84-.839 2.2-.839 3.04 0 .84.84.84 2.201 0 3.041M104.423 72.581c-.84.84-2.2.84-3.04 0-.84-.839-.84-2.2 0-3.04.84-.84 2.2-.84 3.04 0 .84.84.84 2.201 0 3.04M122.958 91.116c-.84.84-2.2.84-3.04 0-.84-.84-.84-2.2 0-3.04.84-.84 2.2-.84 3.04 0 .84.84.84 2.2 0 3.04M141.493 109.651c-.84.84-2.201.84-3.041 0-.84-.84-.84-2.2 0-3.04.84-.84 2.2-.84 3.04 0 .84.84.84 2.2 0 3.04M160.027 128.186c-.84.84-2.2.84-3.04 0-.84-.84-.84-2.2 0-3.04.84-.84 2.2-.84 3.04 0 .84.84.84 2.2 0 3.04M51.432 51.433c-.839.84-2.2.84-3.04 0-.84-.84-.84-2.2 0-3.04.84-.84 2.201-.84 3.04 0 .84.84.84 2.2 0 3.04M69.967 69.968c-.84.84-2.2.84-3.04 0-.84-.84-.84-2.201 0-3.041.84-.84 2.2-.84 3.04 0 .84.84.84 2.2 0 3.04M88.502 88.502c-.84.84-2.2.84-3.04 0-.84-.839-.84-2.2 0-3.04.84-.84 2.2-.84 3.04 0 .84.84.84 2.201 0 3.04M107.037 107.037c-.84.84-2.2.84-3.04 0-.84-.84-.84-2.2 0-3.04.84-.84 2.2-.84 3.04 0 .84.84.84 2.2 0 3.04M125.572 125.572c-.84.84-2.201.84-3.041 0-.84-.84-.84-2.2 0-3.04.84-.84 2.2-.84 3.04 0 .84.84.84 2.2 0 3.04M144.106 144.107c-.839.84-2.2.84-3.04 0-.84-.84-.84-2.2 0-3.04.84-.84 2.201-.84 3.04 0 .84.84.84 2.2 0 3.04M35.512 67.354c-.84.84-2.2.84-3.04 0-.84-.84-.84-2.201 0-3.04.84-.84 2.2-.84 3.04 0 .84.839.84 2.2 0 3.04M54.047 85.889c-.84.84-2.2.84-3.04 0-.84-.84-.84-2.201 0-3.041.84-.84 2.2-.84 3.04 0 .84.84.84 2.2 0 3.04M72.582 104.423c-.84.84-2.201.84-3.041 0-.84-.84-.84-2.2 0-3.04.84-.84 2.2-.84 3.04 0 .84.84.84 2.2 0 3.04M91.116 122.958c-.84.84-2.2.84-3.04 0-.84-.84-.84-2.2 0-3.04.84-.84 2.2-.84 3.04 0 .84.84.84 2.2 0 3.04M109.651 141.493c-.84.84-2.201.84-3.04 0-.84-.84-.84-2.2 0-3.04.839-.84 2.2-.84 3.04 0 .84.84.84 2.2 0 3.04M128.186 160.027c-.84.84-2.2.84-3.04 0-.84-.84-.84-2.2 0-3.04.84-.84 2.2-.84 3.04 0 .84.84.84 2.2 0 3.04M19.591 83.275c-.84.84-2.2.84-3.04 0-.84-.84-.84-2.202 0-3.04.84-.84 2.2-.84 3.04 0 .84.838.84 2.2 0 3.04M38.126 101.81c-.84.839-2.2.839-3.04 0-.84-.84-.84-2.201 0-3.041.84-.84 2.2-.84 3.04 0 .84.84.84 2.2 0 3.04M56.66 120.344c-.84.84-2.2.84-3.04 0-.84-.84-.84-2.2 0-3.04.84-.84 2.2-.84 3.04 0 .84.84.84 2.2 0 3.04M75.195 138.879c-.84.84-2.2.84-3.04 0-.84-.84-.84-2.201 0-3.041.84-.839 2.2-.839 3.04 0 .84.84.84 2.201 0 3.041M93.73 157.414c-.84.84-2.2.84-3.04 0-.84-.84-.84-2.2 0-3.04.84-.84 2.2-.84 3.04 0 .84.84.84 2.2 0 3.04M112.265 175.948c-.84.84-2.2.84-3.04 0-.84-.84-.84-2.2 0-3.04.84-.84 2.2-.84 3.04 0 .84.84.84 2.2 0 3.04"/>
        <g transform="translate(0 95.499)">
            <mask id="prefix__b" fill="#fff">
                <use xlink:href="#prefix__a"/>
            </mask>
            <path fill="#888" d="M3.67 3.696c-.84.84-2.2.84-3.04 0-.84-.84-.84-2.2 0-3.04.84-.84 2.2-.84 3.04 0 .84.84.84 2.2 0 3.04" mask="url(#prefix__b)"/>
        </g>
        <path fill="#888" d="M22.205 117.73c-.84.84-2.2.84-3.04 0-.84-.84-.84-2.2 0-3.04.84-.84 2.2-.84 3.04 0 .84.84.84 2.2 0 3.04M40.74 136.265c-.84.84-2.201.84-3.041 0-.84-.84-.84-2.2 0-3.04.84-.84 2.2-.84 3.04 0 .84.84.84 2.2 0 3.04M59.274 154.8c-.839.84-2.2.84-3.04 0-.84-.84-.84-2.201 0-3.041.84-.84 2.201-.84 3.04 0 .84.84.84 2.2 0 3.04M77.81 173.334c-.84.84-2.202.84-3.04 0-.84-.839-.84-2.2 0-3.04.838-.84 2.2-.84 3.04 0 .84.84.84 2.201 0 3.04"/>
        <g transform="translate(92 187.499)">
            <mask id="prefix__d" fill="#fff">
                <use xlink:href="#prefix__c"/>
            </mask>
            <path fill="#888" d="M4.344 4.37c-.84.84-2.2.84-3.04 0-.84-.84-.84-2.2 0-3.04.84-.84 2.2-.84 3.04 0 .84.84.84 2.2 0 3.04" mask="url(#prefix__d)"/>
        </g>
    </g>
</svg>
